<svg width="680" viewBox="0 0 680 980" xmlns="http://www.w3.org/2000/svg" role="img" font-family="-apple-system, BlinkMacSystemFont, 'Segoe UI', sans-serif">
<title>CAQH Provider Verification Agent — architecture</title>
<desc>Two-tier diagram: local demo (top) and Azure production architecture (bottom) including Azure AI Foundry</desc>
<style>
  .label-sm { font-size: 10px; fill: #888; letter-spacing: 0.12em; }
  .title { font-size: 13px; font-weight: 600; }
  .sub { font-size: 11px; fill: #666; }
  .divider { stroke: #ccc; stroke-width: 0.5; }
  .arr { stroke: #aaa; stroke-width: 1; fill: none; marker-end: url(#arrowhead); }
  .teal rect { fill: #e1f5ee; stroke: #0f6e56; stroke-width: 0.5; }
  .teal .title { fill: #085041; } .teal .sub { fill: #0f6e56; }
  .gray rect { fill: #f1efe8; stroke: #5f5e5a; stroke-width: 0.5; }
  .gray .title { fill: #2c2c2a; } .gray .sub { fill: #5f5e5a; }
  .green rect { fill: #eaf3de; stroke: #3b6d11; stroke-width: 0.5; }
  .green .title { fill: #173404; } .green .sub { fill: #3b6d11; }
  .amber rect { fill: #faeeda; stroke: #854f0b; stroke-width: 0.5; }
  .amber .title { fill: #412402; } .amber .sub { fill: #854f0b; }
  .purple rect { fill: #eeedfe; stroke: #534ab7; stroke-width: 0.5; }
  .purple .title { fill: #26215c; } .purple .sub { fill: #534ab7; }
  .coral rect { fill: #faece7; stroke: #993c1d; stroke-width: 0.5; }
  .coral .title { fill: #4a1b0c; } .coral .sub { fill: #993c1d; }
  .blue rect { fill: #e6f1fb; stroke: #185fa5; stroke-width: 0.5; }
  .blue .title { fill: #042c53; } .blue .sub { fill: #185fa5; }
  .pink rect { fill: #fbeaf0; stroke: #993556; stroke-width: 0.5; stroke-dasharray: 4 2; }
  .pink .title { fill: #4b1528; } .pink .sub { fill: #993556; }
</style>
<defs>
<marker id="arrowhead" viewBox="0 0 10 10" refX="8" refY="5" markerWidth="6" markerHeight="6" orient="auto-start-reverse">
<path d="M2 1L8 5L2 9" fill="none" stroke="#aaa" stroke-width="1.5" stroke-linecap="round" stroke-linejoin="round"/>
</marker>
</defs>
<text class="label-sm" x="40" y="26">THIS REPO · LOCAL DEMO</text>
<line class="divider" x1="40" y1="32" x2="640" y2="32"/>
<g class="teal"><rect x="240" y="44" width="200" height="52" rx="8"/>
<text class="title" x="340" y="64" text-anchor="middle">npm run verify</text>
<text class="sub" x="340" y="81" text-anchor="middle">run.ts · ts-node · local script</text></g>
<line class="arr" x1="340" y1="96" x2="340" y2="116"/>
<g class="gray"><rect x="51" y="118" width="88" height="46" rx="6"/>
<text class="title" x="95" y="138" text-anchor="middle">NPPES</text>
<text class="sub" x="95" y="153" text-anchor="middle">CMS NPI registry</text></g>
<g class="gray"><rect x="149" y="118" width="88" height="46" rx="6"/>
<text class="title" x="193" y="138" text-anchor="middle">OIG LEIE</text>
<text class="sub" x="193" y="153" text-anchor="middle">HHS exclusions</text></g>
<g class="gray"><rect x="247" y="118" width="88" height="46" rx="6"/>
<text class="title" x="291" y="138" text-anchor="middle">SAM.gov</text>
<text class="sub" x="291" y="153" text-anchor="middle">Fed. exclusions</text></g>
<g class="gray"><rect x="345" y="118" width="88" height="46" rx="6"/>
<text class="title" x="389" y="138" text-anchor="middle">CMS opt-out</text>
<text class="sub" x="389" y="153" text-anchor="middle">Medicare status</text></g>
<g class="gray"><rect x="443" y="118" width="88" height="46" rx="6"/>
<text class="title" x="487" y="138" text-anchor="middle">CMS enroll.</text>
<text class="sub" x="487" y="153" text-anchor="middle">PECOS data</text></g>
<g class="gray"><rect x="541" y="118" width="88" height="46" rx="6"/>
<text class="title" x="585" y="138" text-anchor="middle">State board</text>
<text class="sub" x="585" y="153" text-anchor="middle">Simulated [demo]</text></g>
<line class="arr" x1="340" y1="164" x2="340" y2="184"/>
<g class="green"><rect x="185" y="186" width="310" height="44" rx="8"/>
<text class="title" x="340" y="204" text-anchor="middle">Structured terminal report</text>
<text class="sub" x="340" y="220" text-anchor="middle">Change events · confidence scores · source citations</text></g>
<line class="divider" x1="40" y1="252" x2="640" y2="252" stroke-dasharray="4 4"/>
<text class="label-sm" x="40" y="268">PRODUCTION SCALE · AZURE</text>
<line class="divider" x1="40" y1="276" x2="640" y2="276"/>
<g class="amber"><rect x="125" y="288" width="130" height="48" rx="6"/>
<text class="title" x="190" y="308" text-anchor="middle">Scheduled timer</text>
<text class="sub" x="190" y="324" text-anchor="middle">Daily / weekly / monthly</text></g>
<g class="amber"><rect x="275" y="288" width="130" height="48" rx="6"/>
<text class="title" x="340" y="308" text-anchor="middle">Event trigger</text>
<text class="sub" x="340" y="324" text-anchor="middle">Provider record changed</text></g>
<g class="amber"><rect x="425" y="288" width="130" height="48" rx="6"/>
<text class="title" x="490" y="308" text-anchor="middle">On-demand API</text>
<text class="sub" x="490" y="324" text-anchor="middle">Payer requests PSV</text></g>
<line class="arr" x1="190" y1="336" x2="278" y2="378"/>
<line class="arr" x1="340" y1="336" x2="340" y2="378"/>
<line class="arr" x1="490" y1="336" x2="402" y2="378"/>
<g class="teal"><rect x="190" y="380" width="300" height="52" rx="8"/>
<text class="title" x="340" y="400" text-anchor="middle">Verification orchestrator</text>
<text class="sub" x="340" y="416" text-anchor="middle">Azure Durable Functions · fan-out / fan-in</text></g>
<line class="arr" x1="340" y1="432" x2="340" y2="452"/>
<g class="gray"><rect x="51" y="454" width="88" height="46" rx="6"/>
<text class="title" x="95" y="474" text-anchor="middle">NPPES</text>
<text class="sub" x="95" y="489" text-anchor="middle">Adapter</text></g>
<g class="gray"><rect x="149" y="454" width="88" height="46" rx="6"/>
<text class="title" x="193" y="474" text-anchor="middle">OIG LEIE</text>
<text class="sub" x="193" y="489" text-anchor="middle">Adapter</text></g>
<g class="gray"><rect x="247" y="454" width="88" height="46" rx="6"/>
<text class="title" x="291" y="474" text-anchor="middle">SAM.gov</text>
<text class="sub" x="291" y="489" text-anchor="middle">Adapter</text></g>
<g class="gray"><rect x="345" y="454" width="88" height="46" rx="6"/>
<text class="title" x="389" y="474" text-anchor="middle">CMS opt-out</text>
<text class="sub" x="389" y="489" text-anchor="middle">Adapter</text></g>
<g class="gray"><rect x="443" y="454" width="88" height="46" rx="6"/>
<text class="title" x="487" y="474" text-anchor="middle">CMS enroll.</text>
<text class="sub" x="487" y="489" text-anchor="middle">Adapter</text></g>
<g class="gray"><rect x="541" y="454" width="88" height="46" rx="6"/>
<text class="title" x="585" y="474" text-anchor="middle">State board</text>
<text class="sub" x="585" y="489" text-anchor="middle">Playwright extract</text></g>
<line class="arr" x1="95" y1="454" x2="238" y2="432"/>
<line class="arr" x1="193" y1="454" x2="270" y2="432"/>
<line class="arr" x1="291" y1="454" x2="306" y2="432"/>
<line class="arr" x1="389" y1="454" x2="374" y2="432"/>
<line class="arr" x1="487" y1="454" x2="410" y2="432"/>
<line class="arr" x1="585" y1="454" x2="442" y2="432"/>
<line class="arr" x1="340" y1="432" x2="340" y2="520"/>
<g class="purple"><rect x="140" y="522" width="185" height="48" rx="8"/>
<text class="title" x="232" y="542" text-anchor="middle">Diff engine</text>
<text class="sub" x="232" y="558" text-anchor="middle">Snapshot vs. new record</text></g>
<g class="purple"><rect x="355" y="522" width="185" height="48" rx="8"/>
<text class="title" x="447" y="542" text-anchor="middle">Confidence scorer</text>
<text class="sub" x="447" y="558" text-anchor="middle">HIGH · MEDIUM · REVIEW</text></g>
<line class="arr" x1="325" y1="546" x2="355" y2="546"/>
<line class="arr" x1="340" y1="570" x2="340" y2="590"/>
<g class="pink"><rect x="190" y="592" width="300" height="52" rx="8"/>
<text class="title" x="340" y="612" text-anchor="middle">Azure AI Foundry</text>
<text class="sub" x="340" y="628" text-anchor="middle">Ambiguous scoring · PDF extraction · alert summaries</text></g>
<text font-size="10" fill="#993556" x="496" y="590" text-anchor="start">optional</text>
<line class="arr" x1="340" y1="644" x2="340" y2="664"/>
<g class="coral"><rect x="190" y="666" width="300" height="48" rx="8"/>
<text class="title" x="340" y="686" text-anchor="middle">Azure Service Bus</text>
<text class="sub" x="340" y="702" text-anchor="middle">VerificationEvent topic · pub/sub</text></g>
<line class="arr" x1="228" y1="714" x2="148" y2="756"/>
<line class="arr" x1="340" y1="714" x2="340" y2="756"/>
<line class="arr" x1="452" y1="714" x2="532" y2="756"/>
<g class="blue"><rect x="72" y="758" width="150" height="52" rx="8"/>
<text class="title" x="147" y="778" text-anchor="middle">Alert service</text>
<text class="sub" x="147" y="794" text-anchor="middle">Teams · email digest</text></g>
<g class="blue"><rect x="265" y="758" width="150" height="52" rx="8"/>
<text class="title" x="340" y="778" text-anchor="middle">Credentialing</text>
<text class="sub" x="340" y="794" text-anchor="middle">Block / warn on HIGH</text></g>
<g class="blue"><rect x="458" y="758" width="150" height="52" rx="8"/>
<text class="title" x="533" y="778" text-anchor="middle">Query API</text>
<text class="sub" x="533" y="794" text-anchor="middle">APIM · payer-facing</text></g>
<line class="arr" x1="340" y1="810" x2="340" y2="832"/>
<g class="teal"><rect x="140" y="834" width="185" height="48" rx="8"/>
<text class="title" x="232" y="854" text-anchor="middle">Azure SQL</text>
<text class="sub" x="232" y="870" text-anchor="middle">VerificationEvents table</text></g>
<g class="teal"><rect x="355" y="834" width="185" height="48" rx="8"/>
<text class="title" x="447" y="854" text-anchor="middle">Blob storage</text>
<text class="sub" x="447" y="870" text-anchor="middle">Source snapshots · 7yr audit</text></g>
<line stroke="#aaa" stroke-width="0.5" x1="325" y1="858" x2="355" y2="858"/>
<line class="divider" x1="40" y1="900" x2="640" y2="900"/>
<text class="sub" x="40" y="918">Demo: local Node.js · real public APIs · console output</text>
<text class="sub" x="40" y="936">Production: Azure Durable Functions · Service Bus · AKS · APIM · SQL</text>
<text class="sub" x="40" y="954">Dashed border = optional / future phase</text>
</svg>
